<?xml version="1.0" encoding="utf-8"?>
<!-- Generator: Adobe Illustrator 17.0.0, SVG Export Plug-In . SVG Version: 6.00 Build 0)  -->
<!DOCTYPE svg PUBLIC "-//W3C//DTD SVG 1.1//EN" "http://www.w3.org/Graphics/SVG/1.1/DTD/svg11.dtd">
<svg version="1.1" id="Capa_1" xmlns="http://www.w3.org/2000/svg" xmlns:xlink="http://www.w3.org/1999/xlink" x="0px" y="0px"
	 width="1000px" height="145.924px" viewBox="0 0 1000 145.924" enable-background="new 0 0 1000 145.924" xml:space="preserve">
<g>
	<path fill="#898D8D" d="M591.096,63.953l2.244-2.689c1.555,1.282,3.183,2.096,5.156,2.096c1.555,0,2.493-0.616,2.493-1.628v-0.049
		c0-0.962-0.593-1.456-3.479-2.197c-3.479-0.887-5.726-1.849-5.726-5.281v-0.049c0-3.133,2.517-5.206,6.048-5.206
		c2.517,0,4.663,0.79,6.415,2.197l-1.976,2.863c-1.529-1.063-3.035-1.703-4.491-1.703c-1.454,0-2.221,0.666-2.221,1.503v0.052
		c0,1.134,0.741,1.503,3.726,2.268c3.503,0.915,5.479,2.173,5.479,5.184v0.047c0,3.432-2.616,5.356-6.342,5.356
		C595.808,66.717,593.169,65.804,591.096,63.953"/>
	<polygon fill="#898D8D" points="608.443,49.196 621.473,49.196 621.473,52.576 612.219,52.576 612.219,56.081 620.363,56.081 
		620.363,59.462 612.219,59.462 612.219,63.089 621.595,63.089 621.595,66.47 608.443,66.47 	"/>
	<path fill="#898D8D" d="M624.389,57.882v-0.049c0-4.912,3.7-8.932,9.005-8.932c3.258,0,5.208,1.085,6.81,2.665l-2.418,2.788
		c-1.331-1.209-2.689-1.95-4.416-1.95c-2.912,0-5.008,2.418-5.008,5.38v0.049c0,2.962,2.047,5.429,5.008,5.429
		c1.976,0,3.183-0.79,4.54-2.025l2.418,2.444c-1.776,1.901-3.75,3.084-7.083,3.084C628.164,66.765,624.389,62.843,624.389,57.882"/>
	<path fill="#898D8D" d="M651.12,57.587c1.849,0,2.91-0.988,2.91-2.444v-0.049c0-1.628-1.134-2.468-2.987-2.468h-3.773v4.961H651.12
		z M643.468,49.196h7.897c2.195,0,3.898,0.616,5.034,1.753c0.962,0.962,1.48,2.319,1.48,3.947v0.049c0,2.79-1.503,4.542-3.7,5.354
		l4.22,6.17h-4.441l-3.703-5.528h-0.049h-2.936v5.528h-3.801V49.196z"/>
	<polygon fill="#898D8D" points="661.719,49.196 674.748,49.196 674.748,52.576 665.494,52.576 665.494,56.081 673.638,56.081 
		673.638,59.462 665.494,59.462 665.494,63.089 674.871,63.089 674.871,66.47 661.719,66.47 	"/>
	<polygon fill="#898D8D" points="682.618,52.701 677.363,52.701 677.363,49.196 691.675,49.196 691.675,52.701 686.42,52.701 
		686.42,66.469 682.618,66.469 	"/>
	<path fill="#898D8D" d="M702.636,59.239l-2.294-5.601l-2.294,5.601H702.636z M698.639,49.072h3.505l7.401,17.398h-3.971
		l-1.581-3.874h-7.302l-1.581,3.874h-3.874L698.639,49.072z"/>
	<path fill="#898D8D" d="M720.027,57.587c1.849,0,2.91-0.988,2.91-2.444v-0.049c0-1.628-1.134-2.468-2.987-2.468h-3.773v4.961
		H720.027z M712.375,49.196h7.897c2.195,0,3.898,0.616,5.034,1.753c0.962,0.962,1.48,2.319,1.48,3.947v0.049
		c0,2.79-1.503,4.542-3.7,5.354l4.22,6.17h-4.441l-3.703-5.528h-0.049h-2.936v5.528h-3.801V49.196z"/>
	<path fill="#898D8D" d="M733.821,43.471l3.232,1.407l-3.159,2.962h-2.861L733.821,43.471z M730.714,49.195h3.801v17.273h-3.801
		V49.195z"/>
	<path fill="#898D8D" d="M748.773,59.239l-2.294-5.601l-2.294,5.601H748.773z M744.776,49.072h3.505l7.401,17.398h-3.971
		l-1.581-3.874h-7.302l-1.581,3.874h-3.874L744.776,49.072z"/>
	<path fill="#898D8D" d="M772.748,63.04c3.11,0,5.208-2.098,5.208-5.159v-0.049c0-3.058-2.098-5.206-5.208-5.206h-2.936V63.04
		H772.748z M766.011,49.196h6.737c5.429,0,9.179,3.726,9.179,8.588v0.047c0,4.862-3.75,8.638-9.179,8.638h-6.737V49.196z"/>
	<polygon fill="#898D8D" points="785.606,49.196 798.636,49.196 798.636,52.576 789.382,52.576 789.382,56.081 797.525,56.081 
		797.525,59.462 789.382,59.462 789.382,63.089 798.758,63.089 798.758,66.47 785.606,66.47 	"/>
	<path fill="#898D8D" d="M602.497,88.572l-2.294-5.601l-2.294,5.601H602.497z M598.5,78.405h3.505l7.401,17.398h-3.971l-1.581-3.874
		h-7.302l-1.581,3.874h-3.874L598.5,78.405z"/>
	<path fill="#898D8D" d="M618.972,92.373c3.11,0,5.208-2.098,5.208-5.159v-0.049c0-3.058-2.098-5.206-5.208-5.206h-2.936v10.414
		H618.972z M612.235,78.529h6.737c5.429,0,9.179,3.726,9.179,8.588v0.047c0,4.862-3.75,8.638-9.179,8.638h-6.737V78.529z"/>
	<polygon fill="#898D8D" points="631.83,78.529 635.926,78.529 640.466,85.833 645.008,78.529 649.104,78.529 649.104,95.802 
		645.328,95.802 645.328,84.525 640.466,91.904 640.369,91.904 635.556,84.6 635.556,95.802 631.83,95.802 	"/>
	<rect x="653.792" y="78.53" fill="#898D8D" width="3.801" height="17.273"/>
	<polygon fill="#898D8D" points="662.218,78.529 665.723,78.529 673.815,89.164 673.815,78.529 677.567,78.529 677.567,95.802 
		674.335,95.802 665.97,84.822 665.97,95.802 662.218,95.802 	"/>
	<rect x="682.242" y="78.53" fill="#898D8D" width="3.801" height="17.273"/>
	<path fill="#898D8D" d="M689.422,93.285l2.244-2.689c1.555,1.282,3.183,2.096,5.156,2.096c1.555,0,2.493-0.616,2.493-1.628v-0.049
		c0-0.962-0.593-1.456-3.479-2.197c-3.479-0.887-5.726-1.849-5.726-5.281v-0.049c0-3.133,2.517-5.206,6.048-5.206
		c2.517,0,4.662,0.79,6.415,2.197l-1.976,2.863c-1.529-1.063-3.035-1.703-4.491-1.703c-1.454,0-2.221,0.666-2.221,1.503v0.052
		c0,1.134,0.741,1.503,3.726,2.268c3.503,0.915,5.479,2.173,5.479,5.184v0.047c0,3.432-2.616,5.356-6.342,5.356
		C694.134,96.05,691.495,95.137,689.422,93.285"/>
	<polygon fill="#898D8D" points="710.607,82.033 705.351,82.033 705.351,78.528 719.663,78.528 719.663,82.033 714.408,82.033 
		714.408,95.802 710.607,95.802 	"/>
	<path fill="#898D8D" d="M730.253,86.92c1.849,0,2.91-0.988,2.91-2.444v-0.049c0-1.628-1.134-2.468-2.987-2.468h-3.773v4.961
		H730.253z M722.601,78.529h7.897c2.195,0,3.898,0.616,5.034,1.753c0.962,0.962,1.48,2.319,1.48,3.947v0.049
		c0,2.79-1.503,4.542-3.7,5.354l4.22,6.17h-4.441l-3.703-5.528h-0.049h-2.936v5.528h-3.801V78.529z"/>
	<path fill="#898D8D" d="M751.124,88.572l-2.294-5.601l-2.294,5.601H751.124z M747.127,78.405h3.505l7.401,17.398h-3.971
		l-1.581-3.874h-7.302l-1.581,3.874h-3.874L747.127,78.405z"/>
	<path fill="#898D8D" d="M759.167,87.215v-0.049c0-4.912,3.7-8.932,9.005-8.932c3.258,0,5.208,1.085,6.81,2.665l-2.418,2.788
		c-1.332-1.209-2.689-1.95-4.416-1.95c-2.912,0-5.008,2.418-5.008,5.38v0.049c0,2.962,2.047,5.429,5.008,5.429
		c1.976,0,3.183-0.79,4.54-2.025l2.418,2.444c-1.776,1.901-3.75,3.084-7.083,3.084C762.943,96.097,759.167,92.176,759.167,87.215"/>
	<rect x="778.322" y="78.53" fill="#898D8D" width="3.801" height="17.273"/>
	<path fill="#898D8D" d="M796.507,72.804l3.232,1.407l-3.159,2.962h-2.863L796.507,72.804z M800.257,87.215v-0.049
		c0-2.962-2.171-5.429-5.23-5.429c-3.06,0-5.182,2.418-5.182,5.38v0.049c0,2.962,2.169,5.429,5.229,5.429
		S800.257,90.176,800.257,87.215 M785.872,87.215v-0.049c0-4.912,3.874-8.932,9.203-8.932c5.333,0,9.155,3.971,9.155,8.883v0.049
		c0,4.912-3.874,8.932-9.203,8.932C789.695,96.097,785.872,92.126,785.872,87.215"/>
	<polygon fill="#898D8D" points="807.909,78.529 811.413,78.529 819.506,89.164 819.506,78.529 823.258,78.529 823.258,95.802 
		820.025,95.802 811.66,84.822 811.66,95.802 807.909,95.802 	"/>
	<polygon fill="#898D8D" points="840.741,89.287 834.102,78.824 838.546,78.824 842.665,85.758 846.861,78.824 851.178,78.824 
		844.542,89.214 844.542,96.097 840.741,96.097 	"/>
	<polygon fill="#898D8D" points="861.21,78.825 874.362,78.825 874.362,82.278 865.012,82.278 865.012,85.957 873.252,85.957 
		873.252,89.41 865.012,89.41 865.012,96.098 861.21,96.098 	"/>
	<rect x="877.764" y="78.824" fill="#898D8D" width="3.801" height="17.273"/>
	<polygon fill="#898D8D" points="886.193,78.825 889.698,78.825 897.791,89.46 897.791,78.825 901.542,78.825 901.542,96.098 
		898.31,96.098 889.945,85.117 889.945,96.098 886.193,96.098 	"/>
	<path fill="#898D8D" d="M915.758,88.867l-2.294-5.601l-2.294,5.601H915.758z M911.762,78.701h3.505l7.401,17.398h-3.971
		l-1.581-3.874h-7.302l-1.581,3.874h-3.874L911.762,78.701z"/>
	<polygon fill="#898D8D" points="925.497,78.825 929.002,78.825 937.094,89.46 937.094,78.825 940.846,78.825 940.846,96.098 
		937.614,96.098 929.249,85.117 929.249,96.098 925.497,96.098 	"/>
	<polygon fill="#898D8D" points="944.637,93.211 954.138,82.157 944.933,82.157 944.933,78.824 959.024,78.824 959.024,81.713 
		949.522,92.766 959.024,92.766 959.024,96.097 944.637,96.097 	"/>
	<path fill="#898D8D" d="M972.964,88.867l-2.294-5.601l-2.294,5.601H972.964z M968.967,78.701h3.505l7.401,17.398h-3.971
		l-1.581-3.874h-7.302l-1.581,3.874h-3.874L968.967,78.701z"/>
	<path fill="#898D8D" d="M981.656,93.581l2.244-2.689c1.555,1.282,3.183,2.096,5.156,2.096c1.555,0,2.493-0.616,2.493-1.628v-0.049
		c0-0.962-0.593-1.456-3.479-2.197c-3.479-0.887-5.726-1.849-5.726-5.281v-0.049c0-3.133,2.517-5.206,6.048-5.206
		c2.517,0,4.663,0.79,6.415,2.197l-1.976,2.863c-1.529-1.063-3.035-1.703-4.491-1.703c-1.454,0-2.221,0.666-2.221,1.503v0.052
		c0,1.134,0.741,1.503,3.726,2.268c3.503,0.915,5.479,2.173,5.479,5.184v0.047c0,3.432-2.616,5.356-6.342,5.356
		C986.368,96.345,983.728,95.433,981.656,93.581"/>
	<rect x="564.184" y="23.445" fill="#898D8D" width="1.452" height="98.411"/>
	<path fill="#00AE42" d="M182.635,79.813c0.7,1.063,1.666,1.546,3.026,1.579c1.853,0.045,3.035-1.772,3.035-1.772l30.696-39.327
		c2.534-2.644,5.034-0.507,5.034-0.507c2.427,2.534,0.616,4.854,0.616,4.854l-6.864,8.782l-0.002,0.047
		c-0.588,0.608-0.954,1.435-0.954,2.347c0,0.837,0.307,1.6,0.81,2.19v0.017l6.907,8.752l21.755-27.672l-8.694-11.082l-1.606-2.087
		c-1.411-2.03-4.562-2.5-4.562-2.5h-13.028c-3.453,0-5.337,2.39-5.337,2.39l-36.484,46.818L182.635,79.813z"/>
	<path fill="#00AE42" d="M181.09,55.813l-8.728-11.191c-1.776-2.861,0.814-4.909,0.814-4.909c3.26-1.901,5.15,1.033,5.15,1.033
		l7.22,9.273l8.548-11.011L184.24,26.33c-2.354-3.367-5.938-2.897-5.938-2.897h-11.771c-3.767,0-5.386,2.343-5.386,2.343
		l-10.405,13.208l21.755,27.79L181.09,55.813z"/>
	<path fill="#00AE42" d="M214.727,65.353c0,0-1.005-1.555-2.938-1.525c-2.015,0.03-2.828,1.37-2.828,1.37l-31.01,39.823
		c-2.511,2.762-5.214,0.541-5.214,0.541c-2.427-2.536-0.436-4.888-0.436-4.888l6.954-8.932l0.002-0.047
		c0.588-0.608,0.951-1.435,0.951-2.347c0-0.835-0.305-1.6-0.81-2.191l0.002-0.015l-6.907-8.754l-21.829,27.986l12.171,15.403
		l19.122,0.049l38.464-49.191L214.727,65.353z"/>
	<path fill="#00AE42" d="M216.331,89.351l8.801,11.324c2.027,2.811-0.53,4.888-0.53,4.888c-3.38,2.27-5.446-1.121-5.446-1.121
		l-7.364-9.355l-8.548,11.011l12.327,15.779l18.979-0.049l12.169-15.598l-21.803-27.853L216.331,89.351z"/>
	<path fill="#00AE42" d="M246.556,77.373c-2.56,0-4.641-2.1-4.641-4.684c0-2.584,2.081-4.684,4.641-4.684
		c2.56,0,4.641,2.1,4.641,4.684C251.197,75.272,249.116,77.373,246.556,77.373 M246.556,63.978c-4.867,0-8.825,3.907-8.825,8.711
		c0,4.802,3.958,8.711,8.825,8.711c4.867,0,8.827-3.909,8.827-8.711C255.383,67.884,251.423,63.978,246.556,63.978"/>
	<path fill="#00AE42" d="M198.663,10.055c2.56,0,4.641,2.1,4.641,4.684c0,2.582-2.081,4.684-4.641,4.684
		c-2.558,0-4.641-2.102-4.641-4.684C194.022,12.155,196.105,10.055,198.663,10.055 M198.663,23.45c4.867,0,8.827-3.909,8.827-8.711
		s-3.96-8.711-8.827-8.711c-4.867,0-8.825,3.909-8.825,8.711S193.796,23.45,198.663,23.45"/>
	<path fill="#00AE42" d="M146.001,72.655c0-2.583,2.083-4.684,4.643-4.684c2.558,0,4.641,2.1,4.641,4.684
		c0,2.584-2.083,4.684-4.641,4.684C148.084,77.339,146.001,75.239,146.001,72.655 M159.469,72.655c0-4.802-3.96-8.711-8.825-8.711
		c-4.867,0-8.827,3.909-8.827,8.711c0,4.802,3.96,8.711,8.827,8.711C155.508,81.366,159.469,77.457,159.469,72.655"/>
	<path fill="#00AE42" d="M198.676,135.274c-2.56,0-4.641-2.1-4.641-4.684c0-2.582,2.081-4.684,4.641-4.684
		c2.558,0,4.641,2.103,4.641,4.684C203.317,133.173,201.233,135.274,198.676,135.274 M198.676,121.879
		c-4.867,0-8.827,3.909-8.827,8.711c0,4.802,3.96,8.711,8.827,8.711c4.867,0,8.825-3.909,8.825-8.711
		C207.5,125.787,203.542,121.879,198.676,121.879"/>
	<path fill="#898D8D" d="M106.553,14.686H5.163v67.612c0,37.109,50.671,48.292,50.671,48.292h0.047c0,0,50.671-11.183,50.671-48.292
		V14.686z M104.085,17.153v65.144c0,7.893-2.483,15.179-7.379,21.659c-3.988,5.279-9.585,10.064-16.636,14.213
		c-10.792,6.357-21.758,9.282-24.215,9.89c-2.446-0.604-13.322-3.499-24.107-9.83c-7.076-4.151-12.695-8.936-16.702-14.224
		c-4.92-6.492-7.416-13.794-7.416-21.708V17.153H104.085z"/>
	<path fill="#898D8D" d="M68.138,36.326v-6.209h-6.387v5.797h-2.493v-5.797h-6.578v5.797h-2.496v-5.797h-6.49v6.213l3.168,5.444
		c0.11,0.191,0.168,0.408,0.168,0.627l0.026,28.433h3.071l-0.032-10.212c0-2.41,2.74-4.598,5.749-4.598
		c3.011,0,5.749,2.188,5.749,4.596l0.032,10.214h3.151l-0.011-10.781c-0.004-0.049-0.009-0.099-0.009-0.15v-5.345
		c0-0.028,0.002-0.056,0.004-0.082l-0.002-3.889c-0.002-0.009-0.002-0.013-0.002-0.021v-1.699l-0.006-6.462
		c0-0.223,0.06-0.442,0.174-0.636L68.138,36.326z"/>
	<path fill="#898D8D" d="M44.56,71.497l-0.009-9.422l-1.134,0.681c-0.419,0.251-0.943,0.236-1.344-0.039l-1.37-0.936
		c0.004,0.039,0.006,0.079,0.004,0.12l-0.047,3.629c-0.004,0.382-0.185,0.734-0.477,0.964c0.142,0.047,0.275,0.118,0.395,0.215
		c1.66,1.329,1.783,3.234,1.426,4.787H44.56z"/>
	<path fill="#898D8D" d="M55.843,58.517c-1.914,0-3.256,1.364-3.256,2.103l0.032,10.214h6.509l-0.03-10.212
		C59.099,59.881,57.757,58.517,55.843,58.517"/>
	<path fill="#898D8D" d="M17.837,71.497c-0.354-0.786-0.621-1.742-0.799-2.865c-0.314-1.967-0.249-3.778-0.247-3.855
		c0.019-0.528,0.372-0.988,0.878-1.145l2.725-0.842l-3.078-2.178c-0.331-0.234-0.526-0.614-0.526-1.018v-3.453
		c0-0.466,0.258-0.891,0.67-1.108l1.203-0.625v-1.175l-1.095-0.442c-0.47-0.191-0.777-0.649-0.78-1.155l-0.004-4.153
		c0-0.685,0.552-1.241,1.235-1.248l3.849-0.037c-0.069-1.018-0.088-2.41,0.159-3.563c0.335-1.559,1.22-3.249,1.643-4.003
		l-0.204-1.441c-0.052-0.359,0.056-0.719,0.292-0.992c0.238-0.273,0.582-0.43,0.943-0.43h2.075c0.236,0,0.468,0.067,0.668,0.193
		l5.071,3.215h2.332c0.339,0,0.666,0.14,0.9,0.384c0.236,0.247,0.361,0.578,0.346,0.917l-0.176,3.997
		c-0.015,0.337-0.165,0.646-0.406,0.866l1.551,0.004c0.337,0.002,0.661,0.139,0.896,0.382l0.707,0.734l0.537-0.41l0.9-1.896
		c0.206-0.436,0.646-0.713,1.127-0.713h3.31v-0.704l-3.168-5.444c-0.112-0.191-0.17-0.406-0.17-0.627v-7.796
		c0-0.689,0.558-1.248,1.248-1.248h7.738h2.493h6.578h2.496h7.633c0.689,0,1.248,0.558,1.248,1.248v7.796
		c0,0.223-0.06,0.442-0.174,0.636l-3.215,5.44l0.002,0.7h3.282c0.481,0,0.919,0.277,1.125,0.713l0.902,1.896l0.535,0.41l0.709-0.734
		c0.234-0.243,0.556-0.38,0.893-0.382l1.551-0.004c-0.238-0.219-0.389-0.528-0.404-0.866l-0.176-3.997
		c-0.015-0.339,0.11-0.67,0.344-0.917c0.236-0.245,0.561-0.384,0.902-0.384h2.332l5.071-3.215c0.2-0.127,0.432-0.193,0.666-0.193
		h2.077c0.361,0,0.704,0.157,0.941,0.43c0.238,0.273,0.344,0.634,0.292,0.992l-0.204,1.441c0.425,0.754,1.31,2.444,1.643,4.003
		c0.249,1.153,0.228,2.545,0.159,3.563l3.849,0.037c0.685,0.006,1.237,0.563,1.237,1.248l-0.006,4.153
		c0,0.507-0.307,0.964-0.777,1.155l-1.095,0.442v1.175l1.201,0.625c0.412,0.217,0.672,0.642,0.672,1.108v3.453
		c0,0.404-0.195,0.784-0.526,1.018l-3.08,2.178l2.727,0.842c0.505,0.157,0.857,0.616,0.876,1.145
		c0.004,0.077,0.067,1.888-0.245,3.855c-0.178,1.123-0.447,2.079-0.799,2.865h4.536c0.019,0,0.039,0.004,0.058,0.007V23.313H13.32
		v48.184H17.837z"/>
	<path fill="#898D8D" d="M71.175,66.709c0.118-0.094,0.253-0.167,0.395-0.213c-0.294-0.23-0.472-0.584-0.479-0.966l-0.047-3.63
		c0-0.041,0-0.079,0.004-0.12l-1.368,0.936c-0.402,0.275-0.928,0.29-1.347,0.041l-1.074-0.644l0.009,9.383h2.478
		C69.392,69.946,69.514,68.041,71.175,66.709"/>
	<path fill="#898D8D" d="M87.735,97.266c-0.689,0-1.248-0.558-1.248-1.248V87.87c0-0.606-0.365-1.355-0.93-1.914
		c-0.475-0.466-1.297-1.024-2.562-0.996c-1.911,0.03-3.058,1.51-3.219,2.972v8.086c0,0.333-0.131,0.649-0.363,0.883
		c-0.234,0.234-0.552,0.365-0.883,0.365h-7.411c-0.689,0-1.246-0.558-1.246-1.248V87.87c0-0.606-0.367-1.355-0.932-1.914
		c-0.475-0.466-1.301-1.024-2.56-0.996c-0.835,0.013-1.585,0.316-2.165,0.857l6.093,31.076c8.576-3.801,18.73-10.001,24.21-19.627
		H87.735z"/>
	<path fill="#898D8D" d="M67.92,117.666l-8.565-43.674h-6.952l-8.554,43.692c-0.013,0.06-0.03,0.116-0.052,0.174
		c5.947,2.44,10.773,3.681,12.119,4.104c1.366-0.429,6.162-1.662,12.065-4.078C67.956,117.813,67.935,117.742,67.92,117.666"/>
	<path fill="#898D8D" d="M47.554,85.777c-0.576-0.513-1.308-0.801-2.118-0.814c-0.021,0-0.045,0-0.067,0
		c-1.22,0-2.027,0.541-2.493,0.999c-0.565,0.556-0.93,1.306-0.93,1.914v8.148c0,0.689-0.558,1.248-1.248,1.248h-7.411
		c-0.331,0-0.649-0.131-0.881-0.365c-0.234-0.234-0.367-0.552-0.367-0.883v-8.088c-0.159-1.462-1.306-2.942-3.217-2.972
		c-0.024,0-0.045,0-0.069,0c-1.22,0-2.027,0.541-2.493,0.999c-0.565,0.556-0.93,1.306-0.93,1.914v8.148
		c0,0.689-0.558,1.248-1.248,1.248h-6.761c5.472,9.593,15.59,15.787,24.146,19.593L47.554,85.777z"/>
	<path fill="#898D8D" d="M98.452,73.992H61.895l1.795,9.158c0.801-0.43,1.705-0.67,2.65-0.685c1.641-0.03,3.198,0.582,4.349,1.716
		c1.05,1.031,1.675,2.412,1.675,3.69v6.902h4.918V87.87c0-0.039,0.002-0.077,0.004-0.116c0.275-2.968,2.712-5.242,5.668-5.29
		c1.662-0.03,3.2,0.582,4.351,1.716c1.05,1.031,1.675,2.412,1.675,3.69v6.902h6.812c1.705-3.741,2.717-7.95,2.717-12.686v-8.101
		C98.491,73.988,98.472,73.992,98.452,73.992"/>
	<path fill="#898D8D" d="M22.836,94.775v-6.9c0-1.28,0.627-2.659,1.675-3.692c1.151-1.132,2.7-1.735,4.351-1.714
		c2.955,0.047,5.393,2.322,5.668,5.29c0.004,0.039,0.006,0.077,0.006,0.116v6.9h4.916v-6.9c0-1.28,0.625-2.659,1.675-3.692
		c1.151-1.132,2.702-1.735,4.351-1.714c0.921,0.013,1.806,0.245,2.594,0.657l1.789-9.134h-36.54v8.092
		c0,4.738,1.014,8.949,2.723,12.69H22.836z"/>
	<path fill="#898D8D" d="M25.768,68.929h2.023c0.155,0.251,0.243,0.539,0.283,0.838c0.006,0.168,0.017,0.337,0.032,0.505
		c-0.004,0.44-0.082,0.872-0.17,1.226h-7.083c-1.022-0.698-1.533-3.468-1.576-5.749l3.099-0.96c0.522-0.161,0.878-0.644,0.878-1.19
		v-1.196c0-0.404-0.195-0.784-0.526-1.016l-3.443-2.438v-2.051l1.201-0.627c0.412-0.215,0.67-0.64,0.67-1.106v-2.772
		c0-0.507-0.307-0.964-0.777-1.155l-1.095-0.442l-0.002-2.077l3.269-0.03l1.553,2.545l0.011,3.55l-1.067,3.367
		c-0.12,0.38-0.052,0.793,0.183,1.115c0.234,0.32,0.61,0.509,1.007,0.509h0.943c0.612,0,1.132-0.443,1.231-1.046
		c0.09-0.552,0.387-2.143,0.666-2.863c0.215-0.556,1.104-1.75,1.664-2.42c0.393-0.473,0.387-1.16-0.015-1.621l-4.289-4.922
		c-0.084-0.741-0.236-2.498,0.03-3.743c0.29-1.351,1.228-3.071,1.563-3.621c0.152-0.247,0.213-0.539,0.172-0.827l-0.064-0.447h0.277
		l5.071,3.215c0.2,0.127,0.432,0.193,0.668,0.193h1.39l-0.082,1.862l-1.634,0.593c-0.496,0.18-0.825,0.653-0.823,1.179l0.009,1.282
		c0.004,0.685,0.561,1.237,1.243,1.239l4.269,0.013l1.115,1.155c0.44,0.457,1.153,0.511,1.656,0.125c0,0,1.941-1.544,2.027-1.725
		l0.692-1.458h2.489v2.932v1.608c0,0-4.551,1.559-4.929,1.746c-0.296,0.148-0.46,1.557-0.408,1.896
		c0.052,0.339,0.034,0.475,0.524,0.838c0,0,1.325,1.042,1.731,1.188l1.323-1.265l1.752,0.118l-0.002,4.205l-1.673,1.003l-5.232-3.58
		c-0.543-0.372-1.282-0.258-1.688,0.262l-0.818,1.048c-0.397,0.509-0.341,1.237,0.129,1.679l2.994,2.803l-0.03,2.281l-3.002,1.334
		c-0.449,0.202-0.741,0.649-0.741,1.14v0.509c0,0.689,0.558,1.248,1.248,1.248h3.612c0.623,0.775,0.378,1.871,0.116,2.569h-8.324
		c-0.283-0.296-0.43-0.82-0.49-1.407c-0.002-0.159-0.013-0.32-0.028-0.483c-0.021-0.79,0.079-1.609,0.187-2.077l1.937-2.481
		c0.159-0.204,0.251-0.451,0.262-0.709l0.058-1.19c0.021-0.425-0.178-0.833-0.526-1.078c-0.348-0.247-0.797-0.299-1.192-0.135
		l-3.125,1.276c-0.408,0.168-0.698,0.537-0.762,0.973l-0.185,1.248l-1.815,0.548c-0.526,0.159-0.887,0.644-0.887,1.194v0.505
		C24.52,68.371,25.078,68.929,25.768,68.929"/>
	<path fill="#898D8D" d="M85.986,68.929h-2.023c-0.155,0.251-0.243,0.539-0.286,0.838c-0.004,0.168-0.015,0.337-0.03,0.505
		c0.004,0.44,0.082,0.872,0.17,1.226h7.083c1.022-0.698,1.531-3.468,1.576-5.749l-3.099-0.96c-0.524-0.161-0.881-0.644-0.881-1.19
		v-1.196c0-0.404,0.198-0.784,0.528-1.016l3.443-2.438v-2.051l-1.201-0.627c-0.412-0.215-0.672-0.64-0.672-1.106v-2.772
		c0-0.507,0.309-0.964,0.78-1.155l1.095-0.442l0.002-2.077l-3.269-0.03l-1.553,2.545l-0.011,3.55l1.067,3.367
		c0.12,0.38,0.052,0.793-0.183,1.115c-0.236,0.32-0.61,0.509-1.007,0.509h-0.943c-0.612,0-1.132-0.443-1.231-1.046
		c-0.092-0.552-0.387-2.143-0.666-2.863c-0.215-0.556-1.104-1.75-1.664-2.42c-0.393-0.473-0.387-1.16,0.015-1.621l4.289-4.922
		c0.084-0.741,0.236-2.498-0.03-3.743c-0.29-1.351-1.228-3.071-1.563-3.621c-0.152-0.247-0.213-0.539-0.172-0.827l0.062-0.447
		h-0.275l-5.071,3.215c-0.2,0.127-0.432,0.193-0.668,0.193h-1.392l0.084,1.862l1.634,0.593c0.496,0.18,0.825,0.653,0.823,1.179
		l-0.009,1.282c-0.004,0.685-0.561,1.237-1.243,1.239l-4.269,0.013l-1.115,1.155c-0.44,0.457-1.153,0.511-1.656,0.125
		c0,0-1.941-1.544-2.027-1.725l-0.692-1.458H67.25v2.932v1.608c0,0,4.551,1.559,4.927,1.746c0.299,0.148,0.462,1.557,0.41,1.896
		c-0.052,0.339-0.034,0.475-0.524,0.838c0,0-1.327,1.042-1.731,1.188l-1.323-1.265l-1.752,0.118l0.002,4.205l1.673,1.003l5.232-3.58
		c0.543-0.372,1.282-0.258,1.686,0.262l0.82,1.048c0.397,0.509,0.341,1.237-0.131,1.679l-2.992,2.803l0.03,2.281l3.002,1.334
		c0.449,0.202,0.741,0.649,0.741,1.14v0.509c0,0.689-0.558,1.248-1.248,1.248H72.46c-0.623,0.775-0.378,1.871-0.116,2.569h8.324
		c0.283-0.296,0.43-0.82,0.488-1.407c0.004-0.159,0.015-0.32,0.03-0.483c0.021-0.79-0.079-1.609-0.187-2.077l-1.937-2.481
		c-0.159-0.204-0.251-0.451-0.264-0.709l-0.056-1.19c-0.021-0.425,0.176-0.833,0.526-1.078c0.348-0.247,0.797-0.299,1.192-0.135
		l3.125,1.276c0.408,0.168,0.698,0.537,0.762,0.973l0.185,1.248l1.815,0.548c0.526,0.159,0.887,0.644,0.887,1.194v0.505
		C87.233,68.371,86.675,68.929,85.986,68.929"/>
	<path fill="#898D8D" d="M282.072,57.875v-0.047c0-4.74,3.479-8.936,8.664-8.936c2.912,0,4.714,0.84,6.441,2.296l-1.258,1.482
		c-1.334-1.16-2.813-1.976-5.255-1.976c-3.827,0-6.565,3.234-6.565,7.085v0.049c0,4.121,2.639,7.18,6.834,7.18
		c1.976,0,3.801-0.765,4.987-1.727v-4.293h-5.255v-1.755h7.132v6.887c-1.606,1.432-4.025,2.642-6.937,2.642
		C285.429,66.761,282.072,62.812,282.072,57.875"/>
	<path fill="#898D8D" d="M319.78,57.875v-0.047c0-3.924-2.865-7.134-6.812-7.134c-3.949,0-6.763,3.159-6.763,7.085v0.049
		c0,3.924,2.861,7.132,6.81,7.132C316.965,64.96,319.78,61.8,319.78,57.875 M304.18,57.875v-0.047c0-4.763,3.58-8.936,8.835-8.936
		c5.257,0,8.788,4.121,8.788,8.887v0.049c0,4.763-3.58,8.934-8.835,8.934C307.711,66.761,304.18,62.638,304.18,57.875"/>
	<path fill="#898D8D" d="M336.165,58.618h-5.455v6.095h5.801c2.616,0,4.244-1.162,4.244-3.086v-0.049
		C340.754,59.703,339.176,58.618,336.165,58.618 M339.792,53.754c0-1.703-1.357-2.813-3.825-2.813h-5.257v5.949h5.109
		c2.345,0,3.973-1.063,3.973-3.086V53.754z M328.786,49.188h7.353c1.974,0,3.531,0.569,4.516,1.531
		c0.717,0.741,1.11,1.652,1.11,2.764v0.049c0,2.246-1.381,3.404-2.738,3.999c2.049,0.616,3.7,1.8,3.7,4.171v0.049
		c0,2.962-2.491,4.712-6.267,4.712h-7.676V49.188z"/>
	<rect x="349.7" y="49.188" fill="#898D8D" width="1.95" height="17.276"/>
	<polygon fill="#898D8D" points="359.542,49.188 372.029,49.188 372.029,50.966 361.49,50.966 361.49,56.863 370.92,56.863 
		370.92,58.642 361.49,58.642 361.49,64.687 372.153,64.687 372.153,66.463 359.542,66.463 	"/>
	<path fill="#898D8D" d="M385.876,57.999c2.59,0,4.441-1.334,4.441-3.554v-0.049c0-2.122-1.628-3.406-4.418-3.406h-5.33v7.01
		H385.876z M378.622,49.188h7.426c2.124,0,3.827,0.642,4.912,1.727c0.84,0.84,1.334,2.049,1.334,3.408v0.049
		c0,2.861-1.976,4.54-4.688,5.034l5.305,7.057h-2.395l-5.008-6.713h-4.937v6.713h-1.948V49.188z"/>
	<polygon fill="#898D8D" points="399.321,49.188 401.146,49.188 412.03,63.033 412.03,49.188 413.931,49.188 413.931,66.463 
		412.376,66.463 401.219,52.3 401.219,66.463 399.321,66.463 	"/>
	<path fill="#898D8D" d="M436.509,57.875v-0.047c0-3.924-2.865-7.134-6.812-7.134c-3.949,0-6.763,3.159-6.763,7.085v0.049
		c0,3.924,2.861,7.132,6.81,7.132C433.693,64.96,436.509,61.8,436.509,57.875 M420.908,57.875v-0.047
		c0-4.763,3.58-8.936,8.835-8.936c5.257,0,8.788,4.121,8.788,8.887v0.049c0,4.763-3.58,8.934-8.835,8.934
		C424.439,66.761,420.908,62.638,420.908,57.875"/>
	<path fill="#898D8D" d="M456.448,50.99v13.672h4.048c4.368,0,7.158-2.959,7.158-6.786v-0.049c0-3.825-2.79-6.836-7.158-6.836
		H456.448z M454.501,49.188h5.996c5.429,0,9.181,3.728,9.181,8.591v0.047c0,4.864-3.752,8.638-9.181,8.638h-5.996V49.188z"/>
	<polygon fill="#898D8D" points="475.873,49.188 488.359,49.188 488.359,50.966 477.821,50.966 477.821,56.863 487.249,56.863 
		487.249,58.642 477.821,58.642 477.821,64.687 488.484,64.687 488.484,66.463 475.873,66.463 	"/>
	<polygon fill="#898D8D" points="504.01,49.188 505.958,49.188 505.958,64.661 515.685,64.661 515.685,66.463 504.01,66.463 	"/>
	<path fill="#898D8D" d="M532.466,60.121l-3.926-8.784l-3.947,8.784H532.466z M527.653,49.065h1.825l7.875,17.4h-2.098l-2.025-4.566
		h-9.402l-2.049,4.566h-1.999L527.653,49.065z"/>
	<path fill="#898D8D" d="M281.703,87.494v-0.047c0-4.912,3.7-8.936,9.007-8.936c3.258,0,5.208,1.087,6.812,2.665l-2.418,2.79
		c-1.334-1.211-2.691-1.95-4.418-1.95c-2.914,0-5.01,2.42-5.01,5.382v0.049c0,2.959,2.049,5.427,5.01,5.427
		c1.974,0,3.185-0.788,4.54-2.023l2.418,2.444c-1.776,1.901-3.75,3.084-7.083,3.084C285.479,96.378,281.703,92.455,281.703,87.494"
		/>
	<rect x="300.782" y="78.806" fill="#898D8D" width="3.801" height="17.276"/>
	<path fill="#898D8D" d="M308.969,88.68v-9.873h3.801v9.774c0,2.813,1.407,4.267,3.726,4.267c2.319,0,3.726-1.405,3.726-4.143
		v-9.898h3.801v9.748c0,5.234-2.938,7.798-7.579,7.798C311.808,96.353,308.969,93.763,308.969,88.68"/>
	<path fill="#898D8D" d="M335.083,92.653c3.11,0,5.208-2.098,5.208-5.159v-0.049c0-3.06-2.098-5.206-5.208-5.206h-2.936v10.414
		H335.083z M328.346,78.807h6.737c5.429,0,9.181,3.728,9.181,8.591v0.047c0,4.862-3.752,8.638-9.181,8.638h-6.737V78.807z"/>
	<path fill="#898D8D" d="M356.683,88.852l-2.296-5.603l-2.296,5.603H356.683z M352.684,78.683h3.505l7.403,17.4h-3.973l-1.581-3.874
		h-7.302l-1.581,3.874h-3.877L352.684,78.683z"/>
	<path fill="#898D8D" d="M373.08,92.653c3.112,0,5.208-2.098,5.208-5.159v-0.049c0-3.06-2.096-5.206-5.208-5.206h-2.936v10.414
		H373.08z M366.343,78.807h6.737c5.429,0,9.181,3.728,9.181,8.591v0.047c0,4.862-3.752,8.638-9.181,8.638h-6.737V78.807z"/>
	<path fill="#898D8D" d="M400.032,92.653c3.11,0,5.208-2.098,5.208-5.159v-0.049c0-3.06-2.098-5.206-5.208-5.206h-2.936v10.414
		H400.032z M393.295,78.807h6.737c5.431,0,9.181,3.728,9.181,8.591v0.047c0,4.862-3.75,8.638-9.181,8.638h-6.737V78.807z"/>
	<polygon fill="#898D8D" points="412.82,78.807 425.85,78.807 425.85,82.189 416.596,82.189 416.596,85.694 424.739,85.694 
		424.739,89.072 416.596,89.072 416.596,92.702 425.974,92.702 425.974,96.082 412.82,96.082 	"/>
	<polygon fill="#898D8D" points="437.007,78.807 441.103,78.807 445.645,86.113 450.185,78.807 454.28,78.807 454.28,96.082 
		450.505,96.082 450.505,84.803 445.645,92.184 445.546,92.184 440.733,84.878 440.733,96.082 437.007,96.082 	"/>
	<path fill="#898D8D" d="M466.045,73.081l3.234,1.407l-3.159,2.962h-2.865L466.045,73.081z M458.814,78.807h13.03v3.383h-9.254
		v3.505h8.144v3.378h-8.144v3.63h9.379v3.38h-13.154V78.807z"/>
	<polygon fill="#898D8D" points="480.433,87.298 474.658,78.806 479.1,78.806 482.727,84.409 486.38,78.806 490.701,78.806 
		484.926,87.248 490.946,96.083 486.505,96.083 482.63,90.16 478.73,96.083 474.411,96.083 	"/>
	<rect x="493.86" y="78.806" fill="#898D8D" width="3.801" height="17.276"/>
	<path fill="#898D8D" d="M501.337,87.494v-0.047c0-4.912,3.7-8.936,9.009-8.936c3.256,0,5.208,1.087,6.812,2.665l-2.42,2.79
		c-1.334-1.211-2.691-1.95-4.418-1.95c-2.912,0-5.008,2.42-5.008,5.382v0.049c0,2.959,2.047,5.427,5.008,5.427
		c1.974,0,3.185-0.788,4.54-2.023l2.42,2.444c-1.778,1.901-3.752,3.084-7.083,3.084C505.113,96.378,501.337,92.455,501.337,87.494"
		/>
	<path fill="#898D8D" d="M533.463,87.494v-0.047c0-2.964-2.173-5.431-5.232-5.431c-3.062,0-5.182,2.42-5.182,5.382v0.049
		c0,2.959,2.169,5.427,5.229,5.427C531.339,92.873,533.463,90.457,533.463,87.494 M519.074,87.494v-0.047
		c0-4.912,3.874-8.936,9.205-8.936c5.333,0,9.155,3.973,9.155,8.887v0.049c0,4.912-3.872,8.932-9.203,8.932
		C522.901,96.378,519.074,92.405,519.074,87.494"/>
</g>
</svg>
